# xmcd
#
# Track frame offsets:
#	150
#	16713
#	38422
#	55078
#	75538
#	92556
#	107832
#	124108
#	145521
#	166321
#	193867
#
# Disc length: 2904 seconds
#
# Revision: 1
# Processed by: cddbd v1.4PL0 Copyright (c) Steve Scherf et al.
# Submitted via: audiograbber 1.81.01
#
DISCID=7c0b560b
DTITLE=Ernie Johnson - Squeeze It
DYEAR=2001
DGENRE=Blues
TTITLE0=Who Is That Man
TTITLE1=All-American Girl
TTITLE2=Squeeze It
TTITLE3=It's Getting Hard
TTITLE4=It's Party Time Again, 2000
TTITLE5=I've Been Loving You Too Long
TTITLE6=Who Told You
TTITLE7=The Entertainer
TTITLE8=You Made This House A Happy Home
TTITLE9=I Remember J T
TTITLE10=Sexy (Sleeper)
EXTD=Phat Sound Records 4112
EXTT0=
EXTT1=
EXTT2=
EXTT3=
EXTT4=
EXTT5=
EXTT6=
EXTT7=
EXTT8=
EXTT9=
EXTT10=
PLAYORDER=
